<?xml version="1.0" encoding="UTF-8"?>
<svg id="Layer_2" data-name="Layer 2" xmlns="http://www.w3.org/2000/svg" viewBox="0 0 18.11 16">
  <g id="Layer_1-2" data-name="Layer 1-2">
    <g>
      <path d="M1.26,2.53h15.58c.7,0,1.26-.56,1.26-1.26s-.56-1.26-1.26-1.26H1.26C.56,0,0,.56,0,1.26s.56,1.26,1.26,1.26Z"/>
      <path d="M1.26,9.26h15.58c.7,0,1.26-.56,1.26-1.26s-.56-1.26-1.26-1.26H1.26c-.7,0-1.26.56-1.26,1.26s.56,1.26,1.26,1.26Z"/>
      <path d="M1.26,16h15.58c.7,0,1.26-.56,1.26-1.26s-.56-1.26-1.26-1.26H1.26c-.7,0-1.26.56-1.26,1.26s.56,1.26,1.26,1.26Z"/>
    </g>
  </g>
</svg>